<svg style="height: 512px; width: 512px;" xmlns="http://www.w3.org/2000/svg" viewBox="0 0 512 512"><path d="M0 0h512v512H0z" fill="transparent" fill-opacity="0"></path><g class="" style="touch-action: none;" transform="translate(0,0)"><g><path d="M147.887 25.734C137.781 25.714 127.739 26.947 117.997 29.381C66.04 42.366 22.312 89.155 20.212 156.36C19.092 192.163 30.146 221.928 47.752 247.48C65.362 273.032 89.304 294.638 114.602 315.922C165.198 358.495 220.992 399.792 246.999 464.215L255.903 486.265L264.393 464.053C289.043 399.57 343.023 356.277 392.997 312.783C442.971 269.29 489.631 224.58 491.78 156.949C494.056 85.412 449.417 40.249 396.258 29.812C347.258 20.19 290.918 38.934 256.028 87.556C228.481 45.416 187.698 25.816 147.888 25.733Z" class="selected" fill="transparent" fill-opacity="0"></path><path d="M150.055 43.709C188.411 44.111 223.863 68.439 243.195 100.665C246.255 105.575 255.195 119.445 255.195 119.445L262.529 109.095C279.202 82.462 304.632 60.367 334.813 50.77C375.06 37.542 425.28 48.18 451.868 83.084C476.485 115.111 479.638 159.936 465.893 196.75C448.463 240.46 412.056 272.468 377.34 302.543C330.62 341.919 282.995 383.726 255.424 439.403C250.36 429.773 244.752 420.423 238.524 411.503C198.084 351.879 133.842 315.247 84.799 263.895C51.601 232.987 32.215 186.242 39.539 140.815C45.359 88.505 93.389 43.609 146.333 43.745C147.576 43.709 148.816 43.695 150.053 43.709Z" class="" fill="#000000" fill-opacity="1"></path><path d="M214.512 167.634C210.634 167.626 206.78 168.1 203.042 169.034C183.104 174.017 166.322 191.972 165.518 217.764C165.088 231.502 169.328 242.924 176.086 252.729C182.844 262.535 192.031 270.825 201.738 278.993C221.155 295.331 242.566 311.179 252.548 335.901L255.963 344.364L259.221 335.839C268.681 311.093 289.396 294.481 308.573 277.789C327.751 261.099 345.657 243.943 346.481 217.989C347.354 190.537 330.225 173.205 309.825 169.199C291.021 165.509 269.4 172.699 256.011 191.359C245.441 175.187 229.791 167.665 214.513 167.634Z" class="" fill="#000000" fill-opacity="1"></path></g></g></svg>